{
  "accessors": [
    {
      "bufferView": 2,
      "componentType": 5126,
      "count": 3432,
      "max": [
        4.204729080200195,
        3.6883866786956787,
        61.98398208618164
      ],
      "min": [
        -4.156912803649902,
        -3.6567373275756836,
        -62.37590789794922
      ],
      "type": "VEC3"
    },
    {
      "bufferView": 2,
      "byteOffset": 41184,
      "componentType": 5126,
      "count": 3432,
      "max": [
        1.0,
        1.0,
        0.9999938011169434
      ],
      "min": [
        -1.0,
        -1.0,
        -0.9999938011169434
      ],
      "type": "VEC3"
    },
    {
      "bufferView": 1,
      "componentType": 5126,
      "count": 3432,
      "max": [
        0.8017715215682983,
        0.9002873301506042
      ],
      "min": [
        0.44212594628334045,
        0.01720494031906128
      ],
      "type": "VEC2"
    },
    {
      "bufferView": 0,
      "componentType": 5125,
      "count": 16452,
      "type": "SCALAR"
    }
  ],
  "asset": {
    "extras": {
      "author": "paraverun (https://sketchfab.com/paraverun)",
      "license": "CC-BY-4.0 (http://creativecommons.org/licenses/by/4.0/)",
      "source": "https://sketchfab.com/3d-models/sea-mine-d7182920875d48e886a2c3dfc942fe51",
      "title": "Sea Mine"
    },
    "generator": "Sketchfab-12.68.0",
    "version": "2.0"
  },
  "bufferViews": [
    {
      "buffer": 0,
      "byteLength": 65808,
      "name": "floatBufferViews",
      "target": 34963
    },
    {
      "buffer": 0,
      "byteLength": 27456,
      "byteOffset": 65808,
      "byteStride": 8,
      "name": "floatBufferViews",
      "target": 34962
    },
    {
      "buffer": 0,
      "byteLength": 82368,
      "byteOffset": 93264,
      "byteStride": 12,
      "name": "floatBufferViews",
      "target": 34962
    }
  ],
  "buffers": [
    {
      "byteLength": 175632,
      "uri": "scene.bin"
    }
  ],
  "images": [
    {
      "uri": "textures/Material_baseColor.png"
    }
  ],
  "materials": [
    {
      "doubleSided": true,
      "name": "Material",
      "pbrMetallicRoughness": {
        "baseColorTexture": {
          "index": 0
        },
        "metallicFactor": 0.0,
        "roughnessFactor": 0.9978761569260118
      }
    }
  ],
  "meshes": [
    {
      "name": "Cylinder.020_Material_0",
      "primitives": [
        {
          "attributes": {
            "NORMAL": 1,
            "POSITION": 0,
            "TEXCOORD_0": 2
          },
          "indices": 3,
          "material": 0,
          "mode": 4
        }
      ]
    }
  ],
  "nodes": [
    {
      "children": [
        1
      ],
      "matrix": [
        1.0,
        0.0,
        0.0,
        0.0,
        0.0,
        2.220446049250313e-16,
        -1.0,
        0.0,
        0.0,
        1.0,
        2.220446049250313e-16,
        0.0,
        0.0,
        0.0,
        0.0,
        1.0
      ],
      "name": "Sketchfab_model"
    },
    {
      "children": [
        2
      ],
      "matrix": [
        0.009999999776482582,
        0.0,
        0.0,
        0.0,
        0.0,
        0.0,
        0.009999999776482582,
        0.0,
        0.0,
        -0.009999999776482582,
        0.0,
        0.0,
        0.0,
        0.0,
        0.0,
        1.0
      ],
      "name": "seamine.fbx"
    },
    {
      "children": [
        3
      ],
      "name": "RootNode"
    },
    {
      "children": [
        4
      ],
      "matrix": [
        -21.082737447856132,
        -26.719984325055403,
        1.889369457530577e-15,
        -0.0,
        -1.167967652776844e-06,
        9.215557555966817e-07,
        -34.03585433959958,
        -0.0,
        -1.839559521565296,
        1.451458576511892,
        1.0242569503189524e-07,
        -0.0,
        0.133514404296875,
        225.14051818847656,
        0.4718242287635803,
        1.0
      ],
      "name": "Cylinder.020"
    },
    {
      "mesh": 0,
      "name": "Cylinder.020_Material_0"
    }
  ],
  "samplers": [
    {
      "magFilter": 9729,
      "minFilter": 9987,
      "wrapS": 10497,
      "wrapT": 10497
    }
  ],
  "scene": 0,
  "scenes": [
    {
      "name": "Sketchfab_Scene",
      "nodes": [
        0
      ]
    }
  ],
  "textures": [
    {
      "sampler": 0,
      "source": 0
    }
  ]
}
